<mxfile host="app.diagrams.net" agent="Mozilla/5.0 (Windows NT 10.0; Win64; x64) AppleWebKit/537.36 (KHTML, like Gecko) Chrome/133.0.0.0 Safari/537.36" version="26.0.16">
  <diagram id="C5RBs43oDa-KdzZeNtuy" name="Page-1">
    <mxGraphModel grid="1" page="1" gridSize="10" guides="1" tooltips="1" connect="1" arrows="1" fold="1" pageScale="1" pageWidth="1169" pageHeight="827" math="0" shadow="0">
      <root>
        <mxCell id="WIyWlLk6GJQsqaUBKTNV-0" />
        <mxCell id="WIyWlLk6GJQsqaUBKTNV-1" parent="WIyWlLk6GJQsqaUBKTNV-0" />
        <mxCell id="Ico-1CYuqDtu6on-apCF-6" value="CustomerID" style="ellipse;whiteSpace=wrap;html=1;fontSize=14;" vertex="1" parent="WIyWlLk6GJQsqaUBKTNV-1">
          <mxGeometry x="60" y="70" width="110" height="40" as="geometry" />
        </mxCell>
        <mxCell id="Ico-1CYuqDtu6on-apCF-7" value="Customers" style="rounded=0;whiteSpace=wrap;html=1;strokeWidth=3;fontSize=20;fontStyle=0" vertex="1" parent="WIyWlLk6GJQsqaUBKTNV-1">
          <mxGeometry x="150" y="160" width="110" height="70" as="geometry" />
        </mxCell>
        <mxCell id="Ico-1CYuqDtu6on-apCF-12" style="edgeStyle=orthogonalEdgeStyle;rounded=0;orthogonalLoop=1;jettySize=auto;html=1;exitX=0.5;exitY=1;exitDx=0;exitDy=0;entryX=0.167;entryY=-0.017;entryDx=0;entryDy=0;entryPerimeter=0;" edge="1" parent="WIyWlLk6GJQsqaUBKTNV-1" source="Ico-1CYuqDtu6on-apCF-6" target="Ico-1CYuqDtu6on-apCF-7">
          <mxGeometry relative="1" as="geometry" />
        </mxCell>
        <mxCell id="Ico-1CYuqDtu6on-apCF-26" style="edgeStyle=orthogonalEdgeStyle;rounded=0;orthogonalLoop=1;jettySize=auto;html=1;exitX=0.5;exitY=1;exitDx=0;exitDy=0;entryX=0.25;entryY=0;entryDx=0;entryDy=0;" edge="1" parent="WIyWlLk6GJQsqaUBKTNV-1" source="Ico-1CYuqDtu6on-apCF-13" target="Ico-1CYuqDtu6on-apCF-7">
          <mxGeometry relative="1" as="geometry">
            <mxPoint x="183" y="150" as="targetPoint" />
          </mxGeometry>
        </mxCell>
        <mxCell id="Ico-1CYuqDtu6on-apCF-13" value="CustomerName" style="ellipse;whiteSpace=wrap;html=1;fontSize=14;fontStyle=4" vertex="1" parent="WIyWlLk6GJQsqaUBKTNV-1">
          <mxGeometry x="120" y="10" width="126" height="50" as="geometry" />
        </mxCell>
        <mxCell id="Ico-1CYuqDtu6on-apCF-27" style="edgeStyle=orthogonalEdgeStyle;rounded=0;orthogonalLoop=1;jettySize=auto;html=1;exitX=0.5;exitY=1;exitDx=0;exitDy=0;entryX=0.75;entryY=0;entryDx=0;entryDy=0;" edge="1" parent="WIyWlLk6GJQsqaUBKTNV-1" source="Ico-1CYuqDtu6on-apCF-15" target="Ico-1CYuqDtu6on-apCF-7">
          <mxGeometry relative="1" as="geometry" />
        </mxCell>
        <mxCell id="Ico-1CYuqDtu6on-apCF-15" value="Segment" style="ellipse;whiteSpace=wrap;html=1;fontSize=14;" vertex="1" parent="WIyWlLk6GJQsqaUBKTNV-1">
          <mxGeometry x="200" y="60" width="80" height="40" as="geometry" />
        </mxCell>
        <mxCell id="Ico-1CYuqDtu6on-apCF-20" style="edgeStyle=orthogonalEdgeStyle;rounded=0;orthogonalLoop=1;jettySize=auto;html=1;entryX=0;entryY=0.25;entryDx=0;entryDy=0;" edge="1" parent="WIyWlLk6GJQsqaUBKTNV-1" source="Ico-1CYuqDtu6on-apCF-19" target="Ico-1CYuqDtu6on-apCF-7">
          <mxGeometry relative="1" as="geometry" />
        </mxCell>
        <mxCell id="Ico-1CYuqDtu6on-apCF-19" value="Country" style="ellipse;whiteSpace=wrap;html=1;fontSize=14;" vertex="1" parent="WIyWlLk6GJQsqaUBKTNV-1">
          <mxGeometry x="21" y="140" width="69" height="40" as="geometry" />
        </mxCell>
        <mxCell id="Ico-1CYuqDtu6on-apCF-22" style="edgeStyle=orthogonalEdgeStyle;rounded=0;orthogonalLoop=1;jettySize=auto;html=1;entryX=-0.008;entryY=0.867;entryDx=0;entryDy=0;entryPerimeter=0;" edge="1" parent="WIyWlLk6GJQsqaUBKTNV-1" source="Ico-1CYuqDtu6on-apCF-21" target="Ico-1CYuqDtu6on-apCF-7">
          <mxGeometry relative="1" as="geometry">
            <mxPoint x="140" y="210" as="targetPoint" />
          </mxGeometry>
        </mxCell>
        <mxCell id="Ico-1CYuqDtu6on-apCF-21" value="City" style="ellipse;whiteSpace=wrap;html=1;fontSize=16;" vertex="1" parent="WIyWlLk6GJQsqaUBKTNV-1">
          <mxGeometry x="21" y="190" width="69" height="40" as="geometry" />
        </mxCell>
        <mxCell id="Ico-1CYuqDtu6on-apCF-23" value="State" style="ellipse;whiteSpace=wrap;html=1;fontSize=14;" vertex="1" parent="WIyWlLk6GJQsqaUBKTNV-1">
          <mxGeometry x="270" y="100" width="69" height="40" as="geometry" />
        </mxCell>
        <mxCell id="Ico-1CYuqDtu6on-apCF-28" style="edgeStyle=orthogonalEdgeStyle;rounded=0;orthogonalLoop=1;jettySize=auto;html=1;exitX=0;exitY=1;exitDx=0;exitDy=0;entryX=0.933;entryY=0;entryDx=0;entryDy=0;entryPerimeter=0;" edge="1" parent="WIyWlLk6GJQsqaUBKTNV-1" source="Ico-1CYuqDtu6on-apCF-23" target="Ico-1CYuqDtu6on-apCF-7">
          <mxGeometry relative="1" as="geometry" />
        </mxCell>
        <mxCell id="Ico-1CYuqDtu6on-apCF-30" style="edgeStyle=orthogonalEdgeStyle;rounded=0;orthogonalLoop=1;jettySize=auto;html=1;entryX=1;entryY=0.25;entryDx=0;entryDy=0;" edge="1" parent="WIyWlLk6GJQsqaUBKTNV-1" source="Ico-1CYuqDtu6on-apCF-29" target="Ico-1CYuqDtu6on-apCF-7">
          <mxGeometry relative="1" as="geometry" />
        </mxCell>
        <mxCell id="Ico-1CYuqDtu6on-apCF-29" value="Region" style="ellipse;whiteSpace=wrap;html=1;fontSize=14;" vertex="1" parent="WIyWlLk6GJQsqaUBKTNV-1">
          <mxGeometry x="310" y="140" width="69" height="40" as="geometry" />
        </mxCell>
        <mxCell id="Ico-1CYuqDtu6on-apCF-32" style="edgeStyle=orthogonalEdgeStyle;rounded=0;orthogonalLoop=1;jettySize=auto;html=1;entryX=1;entryY=0.75;entryDx=0;entryDy=0;" edge="1" parent="WIyWlLk6GJQsqaUBKTNV-1" source="Ico-1CYuqDtu6on-apCF-31" target="Ico-1CYuqDtu6on-apCF-7">
          <mxGeometry relative="1" as="geometry" />
        </mxCell>
        <mxCell id="Ico-1CYuqDtu6on-apCF-31" value="PostalCode" style="ellipse;whiteSpace=wrap;html=1;fontSize=14;" vertex="1" parent="WIyWlLk6GJQsqaUBKTNV-1">
          <mxGeometry x="300" y="190" width="90" height="40" as="geometry" />
        </mxCell>
        <mxCell id="Ico-1CYuqDtu6on-apCF-49" value="OrderID" style="ellipse;whiteSpace=wrap;html=1;fontSize=14;fontStyle=4" vertex="1" parent="WIyWlLk6GJQsqaUBKTNV-1">
          <mxGeometry x="616" y="50" width="110" height="40" as="geometry" />
        </mxCell>
        <mxCell id="Ico-1CYuqDtu6on-apCF-50" value="Orders" style="rounded=0;whiteSpace=wrap;html=1;strokeWidth=3;fontSize=20;fontStyle=0" vertex="1" parent="WIyWlLk6GJQsqaUBKTNV-1">
          <mxGeometry x="700" y="150" width="110" height="70" as="geometry" />
        </mxCell>
        <mxCell id="Ico-1CYuqDtu6on-apCF-51" style="edgeStyle=orthogonalEdgeStyle;rounded=0;orthogonalLoop=1;jettySize=auto;html=1;exitX=0.5;exitY=1;exitDx=0;exitDy=0;entryX=0.167;entryY=-0.017;entryDx=0;entryDy=0;entryPerimeter=0;" edge="1" parent="WIyWlLk6GJQsqaUBKTNV-1" source="Ico-1CYuqDtu6on-apCF-49" target="Ico-1CYuqDtu6on-apCF-50">
          <mxGeometry relative="1" as="geometry" />
        </mxCell>
        <mxCell id="Ico-1CYuqDtu6on-apCF-52" style="edgeStyle=orthogonalEdgeStyle;rounded=0;orthogonalLoop=1;jettySize=auto;html=1;exitX=0.5;exitY=1;exitDx=0;exitDy=0;entryX=0.25;entryY=0;entryDx=0;entryDy=0;" edge="1" parent="WIyWlLk6GJQsqaUBKTNV-1" source="Ico-1CYuqDtu6on-apCF-53" target="Ico-1CYuqDtu6on-apCF-50">
          <mxGeometry relative="1" as="geometry">
            <mxPoint x="737" y="170" as="targetPoint" />
          </mxGeometry>
        </mxCell>
        <mxCell id="Ico-1CYuqDtu6on-apCF-53" value="Product-ID" style="ellipse;whiteSpace=wrap;html=1;fontSize=14;fontStyle=4" vertex="1" parent="WIyWlLk6GJQsqaUBKTNV-1">
          <mxGeometry x="680" width="126" height="40" as="geometry" />
        </mxCell>
        <mxCell id="Ico-1CYuqDtu6on-apCF-54" style="edgeStyle=orthogonalEdgeStyle;rounded=0;orthogonalLoop=1;jettySize=auto;html=1;exitX=0.5;exitY=1;exitDx=0;exitDy=0;entryX=0.75;entryY=0;entryDx=0;entryDy=0;" edge="1" parent="WIyWlLk6GJQsqaUBKTNV-1" source="Ico-1CYuqDtu6on-apCF-55" target="Ico-1CYuqDtu6on-apCF-50">
          <mxGeometry relative="1" as="geometry" />
        </mxCell>
        <mxCell id="Ico-1CYuqDtu6on-apCF-55" value="CustomerID" style="ellipse;whiteSpace=wrap;html=1;fontSize=14;perimeterSpacing=2;fontStyle=4" vertex="1" parent="WIyWlLk6GJQsqaUBKTNV-1">
          <mxGeometry x="766" y="50" width="96" height="40" as="geometry" />
        </mxCell>
        <mxCell id="Ico-1CYuqDtu6on-apCF-56" style="edgeStyle=orthogonalEdgeStyle;rounded=0;orthogonalLoop=1;jettySize=auto;html=1;entryX=0;entryY=0.25;entryDx=0;entryDy=0;" edge="1" parent="WIyWlLk6GJQsqaUBKTNV-1" source="Ico-1CYuqDtu6on-apCF-57" target="Ico-1CYuqDtu6on-apCF-50">
          <mxGeometry relative="1" as="geometry" />
        </mxCell>
        <mxCell id="Ico-1CYuqDtu6on-apCF-57" value="Order-Month" style="ellipse;whiteSpace=wrap;html=1;fontSize=14;" vertex="1" parent="WIyWlLk6GJQsqaUBKTNV-1">
          <mxGeometry x="540" y="120" width="104" height="50" as="geometry" />
        </mxCell>
        <mxCell id="Ico-1CYuqDtu6on-apCF-58" style="edgeStyle=orthogonalEdgeStyle;rounded=0;orthogonalLoop=1;jettySize=auto;html=1;entryX=-0.008;entryY=0.867;entryDx=0;entryDy=0;entryPerimeter=0;" edge="1" parent="WIyWlLk6GJQsqaUBKTNV-1" source="Ico-1CYuqDtu6on-apCF-59" target="Ico-1CYuqDtu6on-apCF-50">
          <mxGeometry relative="1" as="geometry">
            <mxPoint x="694" y="230" as="targetPoint" />
          </mxGeometry>
        </mxCell>
        <mxCell id="Ico-1CYuqDtu6on-apCF-59" value="Order-Day" style="ellipse;whiteSpace=wrap;html=1;fontSize=16;" vertex="1" parent="WIyWlLk6GJQsqaUBKTNV-1">
          <mxGeometry x="540" y="180" width="104" height="40" as="geometry" />
        </mxCell>
        <mxCell id="Ico-1CYuqDtu6on-apCF-60" value="Quantity" style="ellipse;whiteSpace=wrap;html=1;fontSize=14;" vertex="1" parent="WIyWlLk6GJQsqaUBKTNV-1">
          <mxGeometry x="820" y="100" width="86" height="40" as="geometry" />
        </mxCell>
        <mxCell id="Ico-1CYuqDtu6on-apCF-61" style="edgeStyle=orthogonalEdgeStyle;rounded=0;orthogonalLoop=1;jettySize=auto;html=1;exitX=0;exitY=1;exitDx=0;exitDy=0;entryX=0.933;entryY=0;entryDx=0;entryDy=0;entryPerimeter=0;" edge="1" parent="WIyWlLk6GJQsqaUBKTNV-1" source="Ico-1CYuqDtu6on-apCF-60" target="Ico-1CYuqDtu6on-apCF-50">
          <mxGeometry relative="1" as="geometry" />
        </mxCell>
        <mxCell id="Ico-1CYuqDtu6on-apCF-62" style="edgeStyle=orthogonalEdgeStyle;rounded=0;orthogonalLoop=1;jettySize=auto;html=1;entryX=1;entryY=0.25;entryDx=0;entryDy=0;" edge="1" parent="WIyWlLk6GJQsqaUBKTNV-1" source="Ico-1CYuqDtu6on-apCF-63" target="Ico-1CYuqDtu6on-apCF-50">
          <mxGeometry relative="1" as="geometry" />
        </mxCell>
        <mxCell id="Ico-1CYuqDtu6on-apCF-63" value="OrderDate" style="ellipse;whiteSpace=wrap;html=1;fontSize=14;" vertex="1" parent="WIyWlLk6GJQsqaUBKTNV-1">
          <mxGeometry x="866" y="145" width="96" height="40" as="geometry" />
        </mxCell>
        <mxCell id="Ico-1CYuqDtu6on-apCF-64" style="edgeStyle=orthogonalEdgeStyle;rounded=0;orthogonalLoop=1;jettySize=auto;html=1;entryX=1;entryY=0.75;entryDx=0;entryDy=0;" edge="1" parent="WIyWlLk6GJQsqaUBKTNV-1" source="Ico-1CYuqDtu6on-apCF-65" target="Ico-1CYuqDtu6on-apCF-50">
          <mxGeometry relative="1" as="geometry" />
        </mxCell>
        <mxCell id="Ico-1CYuqDtu6on-apCF-65" value="Order-Year" style="ellipse;whiteSpace=wrap;html=1;fontSize=14;" vertex="1" parent="WIyWlLk6GJQsqaUBKTNV-1">
          <mxGeometry x="866" y="190" width="96" height="40" as="geometry" />
        </mxCell>
        <mxCell id="Ico-1CYuqDtu6on-apCF-66" value="Order-ID" style="ellipse;whiteSpace=wrap;html=1;fontSize=17;fontStyle=4" vertex="1" parent="WIyWlLk6GJQsqaUBKTNV-1">
          <mxGeometry x="585" y="410" width="126" height="40" as="geometry" />
        </mxCell>
        <mxCell id="Ico-1CYuqDtu6on-apCF-67" value="Shipping" style="rounded=0;whiteSpace=wrap;html=1;strokeWidth=3;fontSize=20;fontStyle=0" vertex="1" parent="WIyWlLk6GJQsqaUBKTNV-1">
          <mxGeometry x="766" y="500" width="110" height="70" as="geometry" />
        </mxCell>
        <mxCell id="Ico-1CYuqDtu6on-apCF-70" value="ShipMode" style="ellipse;whiteSpace=wrap;html=1;fontSize=17;" vertex="1" parent="WIyWlLk6GJQsqaUBKTNV-1">
          <mxGeometry x="852" y="394" width="126" height="40" as="geometry" />
        </mxCell>
        <mxCell id="Ico-1CYuqDtu6on-apCF-72" value="Ship-Duration (Days)" style="ellipse;whiteSpace=wrap;html=1;fontSize=16;" vertex="1" parent="WIyWlLk6GJQsqaUBKTNV-1">
          <mxGeometry x="890" y="450" width="184" height="40" as="geometry" />
        </mxCell>
        <mxCell id="Ico-1CYuqDtu6on-apCF-73" style="edgeStyle=orthogonalEdgeStyle;rounded=0;orthogonalLoop=1;jettySize=auto;html=1;entryX=0;entryY=0.25;entryDx=0;entryDy=0;" edge="1" parent="WIyWlLk6GJQsqaUBKTNV-1" source="Ico-1CYuqDtu6on-apCF-74" target="Ico-1CYuqDtu6on-apCF-67">
          <mxGeometry relative="1" as="geometry" />
        </mxCell>
        <mxCell id="Ico-1CYuqDtu6on-apCF-74" value="Ship-Month" style="ellipse;whiteSpace=wrap;html=1;fontSize=17;" vertex="1" parent="WIyWlLk6GJQsqaUBKTNV-1">
          <mxGeometry x="580" y="470" width="126" height="50" as="geometry" />
        </mxCell>
        <mxCell id="Ico-1CYuqDtu6on-apCF-75" style="edgeStyle=orthogonalEdgeStyle;rounded=0;orthogonalLoop=1;jettySize=auto;html=1;entryX=-0.008;entryY=0.867;entryDx=0;entryDy=0;entryPerimeter=0;" edge="1" parent="WIyWlLk6GJQsqaUBKTNV-1" source="Ico-1CYuqDtu6on-apCF-76" target="Ico-1CYuqDtu6on-apCF-67">
          <mxGeometry relative="1" as="geometry">
            <mxPoint x="756" y="550" as="targetPoint" />
          </mxGeometry>
        </mxCell>
        <mxCell id="Ico-1CYuqDtu6on-apCF-76" value="&lt;span&gt;Ship&lt;/span&gt;-Day" style="ellipse;whiteSpace=wrap;html=1;fontSize=18;" vertex="1" parent="WIyWlLk6GJQsqaUBKTNV-1">
          <mxGeometry x="570" y="530" width="136" height="40" as="geometry" />
        </mxCell>
        <mxCell id="Ico-1CYuqDtu6on-apCF-79" style="edgeStyle=orthogonalEdgeStyle;rounded=0;orthogonalLoop=1;jettySize=auto;html=1;entryX=1;entryY=0.25;entryDx=0;entryDy=0;" edge="1" parent="WIyWlLk6GJQsqaUBKTNV-1" source="Ico-1CYuqDtu6on-apCF-80" target="Ico-1CYuqDtu6on-apCF-67">
          <mxGeometry relative="1" as="geometry" />
        </mxCell>
        <mxCell id="Ico-1CYuqDtu6on-apCF-80" value="ShipDate" style="ellipse;whiteSpace=wrap;html=1;fontSize=16;" vertex="1" parent="WIyWlLk6GJQsqaUBKTNV-1">
          <mxGeometry x="950" y="500" width="96" height="50" as="geometry" />
        </mxCell>
        <mxCell id="Ico-1CYuqDtu6on-apCF-81" style="edgeStyle=orthogonalEdgeStyle;rounded=0;orthogonalLoop=1;jettySize=auto;html=1;entryX=1;entryY=0.75;entryDx=0;entryDy=0;" edge="1" parent="WIyWlLk6GJQsqaUBKTNV-1" source="Ico-1CYuqDtu6on-apCF-82" target="Ico-1CYuqDtu6on-apCF-67">
          <mxGeometry relative="1" as="geometry" />
        </mxCell>
        <mxCell id="Ico-1CYuqDtu6on-apCF-82" value="Ship-Year" style="ellipse;whiteSpace=wrap;html=1;fontSize=16;" vertex="1" parent="WIyWlLk6GJQsqaUBKTNV-1">
          <mxGeometry x="950" y="565" width="96" height="50" as="geometry" />
        </mxCell>
        <mxCell id="Ico-1CYuqDtu6on-apCF-108" style="edgeStyle=orthogonalEdgeStyle;rounded=0;orthogonalLoop=1;jettySize=auto;html=1;entryX=0;entryY=0.5;entryDx=0;entryDy=0;" edge="1" parent="WIyWlLk6GJQsqaUBKTNV-1" source="Ico-1CYuqDtu6on-apCF-83" target="Ico-1CYuqDtu6on-apCF-84">
          <mxGeometry relative="1" as="geometry" />
        </mxCell>
        <mxCell id="Ico-1CYuqDtu6on-apCF-83" value="Product-ID" style="ellipse;whiteSpace=wrap;html=1;fontSize=17;fontStyle=4" vertex="1" parent="WIyWlLk6GJQsqaUBKTNV-1">
          <mxGeometry x="14" y="410" width="110" height="60" as="geometry" />
        </mxCell>
        <mxCell id="Ico-1CYuqDtu6on-apCF-84" value="Products" style="rounded=0;whiteSpace=wrap;html=1;strokeWidth=3;fontSize=20;fontStyle=0" vertex="1" parent="WIyWlLk6GJQsqaUBKTNV-1">
          <mxGeometry x="183" y="450" width="110" height="80" as="geometry" />
        </mxCell>
        <mxCell id="Ico-1CYuqDtu6on-apCF-87" value="ProductName" style="ellipse;whiteSpace=wrap;html=1;fontSize=17;" vertex="1" parent="WIyWlLk6GJQsqaUBKTNV-1">
          <mxGeometry x="273" y="370" width="164" height="50" as="geometry" />
        </mxCell>
        <mxCell id="Ico-1CYuqDtu6on-apCF-104" style="edgeStyle=orthogonalEdgeStyle;rounded=0;orthogonalLoop=1;jettySize=auto;html=1;" edge="1" parent="WIyWlLk6GJQsqaUBKTNV-1" source="Ico-1CYuqDtu6on-apCF-89">
          <mxGeometry relative="1" as="geometry">
            <mxPoint x="303" y="480" as="targetPoint" />
          </mxGeometry>
        </mxCell>
        <mxCell id="Ico-1CYuqDtu6on-apCF-89" value="Category" style="ellipse;whiteSpace=wrap;html=1;fontSize=22;" vertex="1" parent="WIyWlLk6GJQsqaUBKTNV-1">
          <mxGeometry x="343" y="430" width="116.5" height="50" as="geometry" />
        </mxCell>
        <mxCell id="Ico-1CYuqDtu6on-apCF-91" value="Price" style="ellipse;whiteSpace=wrap;html=1;fontSize=21;" vertex="1" parent="WIyWlLk6GJQsqaUBKTNV-1">
          <mxGeometry x="332" y="490" width="105" height="50" as="geometry" />
        </mxCell>
        <mxCell id="Ico-1CYuqDtu6on-apCF-93" value="&lt;span&gt;Ship&lt;/span&gt;-Day" style="ellipse;whiteSpace=wrap;html=1;fontSize=18;" vertex="1" parent="WIyWlLk6GJQsqaUBKTNV-1">
          <mxGeometry x="11" y="475" width="116" height="55" as="geometry" />
        </mxCell>
        <mxCell id="Ico-1CYuqDtu6on-apCF-102" style="edgeStyle=orthogonalEdgeStyle;rounded=0;orthogonalLoop=1;jettySize=auto;html=1;exitX=0;exitY=0.5;exitDx=0;exitDy=0;entryX=1;entryY=0.643;entryDx=0;entryDy=0;entryPerimeter=0;" edge="1" parent="WIyWlLk6GJQsqaUBKTNV-1" source="Ico-1CYuqDtu6on-apCF-91" target="Ico-1CYuqDtu6on-apCF-84">
          <mxGeometry relative="1" as="geometry" />
        </mxCell>
        <mxCell id="Ico-1CYuqDtu6on-apCF-105" style="edgeStyle=orthogonalEdgeStyle;rounded=0;orthogonalLoop=1;jettySize=auto;html=1;exitX=0;exitY=1;exitDx=0;exitDy=0;entryX=0.927;entryY=0.025;entryDx=0;entryDy=0;entryPerimeter=0;" edge="1" parent="WIyWlLk6GJQsqaUBKTNV-1" source="Ico-1CYuqDtu6on-apCF-87" target="Ico-1CYuqDtu6on-apCF-84">
          <mxGeometry relative="1" as="geometry" />
        </mxCell>
        <mxCell id="Ico-1CYuqDtu6on-apCF-107" style="edgeStyle=orthogonalEdgeStyle;rounded=0;orthogonalLoop=1;jettySize=auto;html=1;entryX=-0.027;entryY=0.675;entryDx=0;entryDy=0;entryPerimeter=0;" edge="1" parent="WIyWlLk6GJQsqaUBKTNV-1" target="Ico-1CYuqDtu6on-apCF-84">
          <mxGeometry relative="1" as="geometry">
            <mxPoint x="123" y="507.5" as="sourcePoint" />
          </mxGeometry>
        </mxCell>
        <mxCell id="Ico-1CYuqDtu6on-apCF-109" value="" style="endArrow=classic;startArrow=classic;html=1;rounded=0;fontSize=19;strokeWidth=5;exitX=0.383;exitY=-0.033;exitDx=0;exitDy=0;exitPerimeter=0;entryX=0.5;entryY=1;entryDx=0;entryDy=0;" edge="1" parent="WIyWlLk6GJQsqaUBKTNV-1" source="Ico-1CYuqDtu6on-apCF-114" target="Ico-1CYuqDtu6on-apCF-110">
          <mxGeometry width="50" height="50" relative="1" as="geometry">
            <mxPoint x="218.16" y="420" as="sourcePoint" />
            <mxPoint x="213.84181818181824" y="270" as="targetPoint" />
          </mxGeometry>
        </mxCell>
        <mxCell id="Ico-1CYuqDtu6on-apCF-110" value="M" style="text;html=1;align=center;verticalAlign=middle;whiteSpace=wrap;rounded=0;fontStyle=1;fontSize=16;" vertex="1" parent="WIyWlLk6GJQsqaUBKTNV-1">
          <mxGeometry x="183" y="230" width="60" height="30" as="geometry" />
        </mxCell>
        <mxCell id="Ico-1CYuqDtu6on-apCF-114" value="M" style="text;html=1;align=center;verticalAlign=middle;whiteSpace=wrap;rounded=0;fontStyle=1;fontSize=16;" vertex="1" parent="WIyWlLk6GJQsqaUBKTNV-1">
          <mxGeometry x="191" y="420" width="60" height="30" as="geometry" />
        </mxCell>
        <mxCell id="Ico-1CYuqDtu6on-apCF-115" value="M" style="text;html=1;align=center;verticalAlign=middle;whiteSpace=wrap;rounded=0;fontStyle=1;fontSize=16;" vertex="1" parent="WIyWlLk6GJQsqaUBKTNV-1">
          <mxGeometry x="213" y="535" width="60" height="30" as="geometry" />
        </mxCell>
        <mxCell id="Ico-1CYuqDtu6on-apCF-116" value="I" style="text;html=1;align=center;verticalAlign=middle;whiteSpace=wrap;rounded=0;fontStyle=1;fontSize=20;" vertex="1" parent="WIyWlLk6GJQsqaUBKTNV-1">
          <mxGeometry x="730" y="210" width="60" height="50" as="geometry" />
        </mxCell>
        <mxCell id="Ico-1CYuqDtu6on-apCF-117" value="" style="endArrow=classic;startArrow=classic;html=1;rounded=0;fontSize=19;strokeWidth=5;exitX=1;exitY=0.5;exitDx=0;exitDy=0;entryX=0.333;entryY=0.66;entryDx=0;entryDy=0;entryPerimeter=0;" edge="1" parent="WIyWlLk6GJQsqaUBKTNV-1" target="Ico-1CYuqDtu6on-apCF-116">
          <mxGeometry width="50" height="50" relative="1" as="geometry">
            <mxPoint x="243" y="243" as="sourcePoint" />
            <mxPoint x="696" y="242.99" as="targetPoint" />
            <Array as="points" />
          </mxGeometry>
        </mxCell>
        <mxCell id="Ico-1CYuqDtu6on-apCF-119" value="" style="endArrow=classic;startArrow=classic;html=1;rounded=0;fontSize=19;strokeWidth=5;exitX=0.75;exitY=1;exitDx=0;exitDy=0;" edge="1" parent="WIyWlLk6GJQsqaUBKTNV-1" source="Ico-1CYuqDtu6on-apCF-115">
          <mxGeometry width="50" height="50" relative="1" as="geometry">
            <mxPoint x="260" y="570" as="sourcePoint" />
            <mxPoint x="780" y="590" as="targetPoint" />
            <Array as="points">
              <mxPoint x="540" y="620" />
            </Array>
          </mxGeometry>
        </mxCell>
        <mxCell id="Ico-1CYuqDtu6on-apCF-120" value="M" style="text;html=1;align=center;verticalAlign=middle;whiteSpace=wrap;rounded=0;fontStyle=1;fontSize=16;" vertex="1" parent="WIyWlLk6GJQsqaUBKTNV-1">
          <mxGeometry x="780" y="585" width="60" height="30" as="geometry" />
        </mxCell>
        <mxCell id="Ico-1CYuqDtu6on-apCF-123" style="edgeStyle=orthogonalEdgeStyle;rounded=0;orthogonalLoop=1;jettySize=auto;html=1;exitX=0;exitY=1;exitDx=0;exitDy=0;entryX=0.918;entryY=0.043;entryDx=0;entryDy=0;entryPerimeter=0;" edge="1" parent="WIyWlLk6GJQsqaUBKTNV-1" source="Ico-1CYuqDtu6on-apCF-72" target="Ico-1CYuqDtu6on-apCF-67">
          <mxGeometry relative="1" as="geometry" />
        </mxCell>
        <mxCell id="Ico-1CYuqDtu6on-apCF-124" style="edgeStyle=orthogonalEdgeStyle;rounded=0;orthogonalLoop=1;jettySize=auto;html=1;exitX=0;exitY=1;exitDx=0;exitDy=0;entryX=0.855;entryY=0;entryDx=0;entryDy=0;entryPerimeter=0;" edge="1" parent="WIyWlLk6GJQsqaUBKTNV-1" source="Ico-1CYuqDtu6on-apCF-70" target="Ico-1CYuqDtu6on-apCF-67">
          <mxGeometry relative="1" as="geometry" />
        </mxCell>
        <mxCell id="Ico-1CYuqDtu6on-apCF-126" style="edgeStyle=orthogonalEdgeStyle;rounded=0;orthogonalLoop=1;jettySize=auto;html=1;exitX=1;exitY=1;exitDx=0;exitDy=0;entryX=0.127;entryY=0;entryDx=0;entryDy=0;entryPerimeter=0;" edge="1" parent="WIyWlLk6GJQsqaUBKTNV-1" source="Ico-1CYuqDtu6on-apCF-66" target="Ico-1CYuqDtu6on-apCF-67">
          <mxGeometry relative="1" as="geometry" />
        </mxCell>
        <mxCell id="Ico-1CYuqDtu6on-apCF-127" value="" style="endArrow=classic;startArrow=classic;html=1;rounded=0;fontSize=19;strokeWidth=5;" edge="1" parent="WIyWlLk6GJQsqaUBKTNV-1">
          <mxGeometry width="50" height="50" relative="1" as="geometry">
            <mxPoint x="820" y="460" as="sourcePoint" />
            <mxPoint x="774.2553191489362" y="240" as="targetPoint" />
          </mxGeometry>
        </mxCell>
        <mxCell id="Ico-1CYuqDtu6on-apCF-128" value="I" style="text;html=1;align=center;verticalAlign=middle;whiteSpace=wrap;rounded=0;fontStyle=1;fontSize=20;" vertex="1" parent="WIyWlLk6GJQsqaUBKTNV-1">
          <mxGeometry x="790" y="450" width="60" height="50" as="geometry" />
        </mxCell>
        <mxCell id="Ico-1CYuqDtu6on-apCF-130" value="" style="ellipse;whiteSpace=wrap;html=1;textOpacity=0;opacity=40;" vertex="1" parent="WIyWlLk6GJQsqaUBKTNV-1">
          <mxGeometry x="749" y="45" width="130" height="50" as="geometry" />
        </mxCell>
        <mxCell id="Ico-1CYuqDtu6on-apCF-131" value="" style="ellipse;whiteSpace=wrap;html=1;textOpacity=0;opacity=40;" vertex="1" parent="WIyWlLk6GJQsqaUBKTNV-1">
          <mxGeometry x="575.5" y="398" width="145" height="64" as="geometry" />
        </mxCell>
      </root>
    </mxGraphModel>
  </diagram>
</mxfile>
